<svg xmlns="http://www.w3.org/2000/svg" xmlns:xlink="http://www.w3.org/1999/xlink" id="body_1" width="265" height="256" viewBox=" 0 0 256 228">
  <g transform="matrix(0.10000001 0 0 0.10000001 -46.5 -26.700003)">
    <g transform="matrix(0.1 0 -0 -0.1 0 4000)">
      <path d="M22621 36865C 22355 36805 22117 36621 21996 36383C 21851 36095 21861 35757 22022 35486C 22144 35282 22333 35135 22565 35064C 22648 35038 22668 35036 22820 35036C 22971 35036 22992 35038 23073 35063C 23404 35165 23642 35412 23726 35740C 23754 35850 23752 36075 23722 36185C 23695 36284 23633 36414 23576 36494C 23533 36554 23434 36657 23376 36701C 23314 36749 23190 36812 23100 36842C 23013 36870 22991 36873 22845 36876C 22730 36879 22667 36875 22621 36865z" stroke="none" fill="#E8E8E8" fill-rule="nonzero"/>
      <path d="M13030 36283C 12560 36238 12186 36133 11793 35936C 11479 35779 11219 35595 10967 35350C 10675 35068 10453 34762 10279 34404L10279 34404L10211 34263L10164 34256C 10138 34253 10078 34250 10031 34250C 9867 34249 9607 34213 9387 34160C 8500 33945 7745 33379 7278 32580C 7060 32207 6923 31800 6853 31315C 6829 31146 6829 30668 6853 30490C 6919 30015 7062 29596 7289 29211C 7323 29154 7349 29106 7348 29105C 7346 29103 7294 29083 7233 29060C 6182 28674 5394 27796 5129 26716C 5059 26429 5036 26227 5036 25910C 5036 25518 5084 25208 5200 24859C 5364 24366 5635 23926 6005 23554C 6369 23188 6761 22936 7245 22760C 7295 22742 7338 22724 7342 22721C 7346 22717 7327 22676 7299 22630C 7070 22250 6922 21816 6853 21330C 6828 21154 6828 20677 6853 20505C 6877 20342 6906 20197 6940 20065C 7275 18801 8306 17852 9595 17621C 9748 17593 9980 17570 10103 17570L10103 17570L10207 17570L10293 17398C 10585 16809 11013 16345 11572 16008C 11983 15761 12434 15609 12935 15549C 13100 15529 13511 15532 13685 15554C 14265 15628 14787 15830 15245 16158C 15912 16636 16385 17350 16565 18148C 16638 18474 16650 18685 16650 19723L16650 19723L16650 20520L15716 20520L14782 20520L14755 20488C 14740 20470 14698 20429 14662 20396C 14480 20237 14264 20131 14023 20083C 13891 20058 13656 20060 13523 20088C 13255 20146 13049 20258 12855 20454C 12663 20647 12552 20853 12494 21122C 12468 21240 12468 21513 12494 21630C 12555 21912 12682 22144 12876 22330C 13259 22695 13797 22797 14293 22597C 14457 22530 14654 22394 14755 22276L14755 22276L14802 22220L15726 22220L16650 22220L16650 22895L16650 23570L14583 23570L12515 23570L12415 23472C 12359 23418 12281 23351 12240 23323C 11791 23021 11221 23011 10775 23298C 10471 23493 10272 23789 10194 24161C 10169 24276 10169 24522 10193 24643C 10290 25127 10616 25502 11073 25655C 11235 25709 11345 25724 11540 25717C 11672 25713 11724 25706 11803 25686C 12051 25620 12238 25516 12411 25345L12411 25345L12487 25270L14542 25270L16596 25270L16623 25298L16650 25326L16650 25811L16650 26295L16307 26638L15965 26980L14560 26980L13155 26980L13085 26919C 12910 26767 12712 26669 12477 26618C 12344 26590 12088 26588 11965 26614C 11685 26675 11459 26800 11265 27001C 11090 27182 10980 27392 10924 27650C 10898 27769 10898 28041 10924 28160C 11042 28707 11439 29100 11980 29207C 12107 29232 12345 29230 12477 29201C 12737 29146 12975 29018 13156 28834C 13195 28795 13242 28741 13260 28716L13260 28716L13293 28670L14972 28670L16650 28670L16650 29563L16650 30456L16617 30488L16584 30520L15836 30520L15088 30520L15003 30430C 14807 30222 14558 30085 14275 30030C 14144 30005 13934 30003 13804 30025C 13255 30120 12831 30530 12713 31080C 12691 31185 12688 31491 12708 31585C 12771 31877 12891 32102 13085 32295C 13140 32350 13219 32418 13260 32447C 13675 32731 14193 32765 14645 32538C 14745 32487 14878 32391 14967 32303L14967 32303L15052 32220L15852 32220L16653 32220L16647 32693C 16640 33260 16626 33413 16550 33727C 16239 35016 15186 36007 13880 36239C 13673 36276 13506 36290 13280 36288C 13162 36287 13049 36285 13030 36283z" stroke="none" fill="#E8E8E8" fill-rule="nonzero"/>
      <path d="M19885 35060C 19544 35012 19268 34797 19139 34480C 19071 34311 19056 34086 19103 33908C 19178 33624 19379 33391 19647 33280C 19888 33179 20176 33189 20412 33305C 20600 33398 20766 33569 20851 33755C 20920 33908 20947 34111 20920 34277C 20849 34718 20485 35044 20040 35064C 19988 35067 19918 35065 19885 35060z" stroke="none" fill="#E8E8E8" fill-rule="nonzero"/>
      <path d="M25094 35059C 24738 35017 24431 34752 24324 34393C 24288 34274 24280 34082 24305 33959C 24377 33602 24636 33331 24997 33234C 25102 33205 25337 33207 25450 33238C 25775 33325 26032 33585 26117 33909C 26148 34030 26152 34213 26125 34330C 26084 34511 26002 34657 25870 34790C 25718 34941 25553 35025 25345 35056C 25247 35071 25201 35072 25094 35059z" stroke="none" fill="#E8E8E8" fill-rule="nonzero"/>
      <path d="M22051 32389C 21801 32345 21575 32198 21433 31990C 21327 31833 21277 31663 21277 31460C 21278 31041 21561 30681 21975 30569C 22094 30537 22301 30537 22425 30569C 22761 30656 23012 30905 23107 31244C 23120 31291 23124 31344 23124 31470C 23124 31620 23121 31643 23097 31723C 22996 32053 22740 32296 22410 32375C 22331 32394 22124 32402 22051 32389z" stroke="none" fill="#E8E8E8" fill-rule="nonzero"/>
      <path d="M13920 32270C 13814 32257 13731 32232 13623 32180C 13250 31999 13044 31595 13115 31185C 13148 30995 13235 30833 13379 30690C 13480 30590 13564 30533 13682 30487C 13816 30433 13863 30425 14035 30426C 14179 30426 14204 30429 14283 30453C 14387 30485 14492 30536 14576 30596C 14657 30653 14776 30782 14824 30865L14824 30865L14863 30930L15814 30930L16765 30930L18283 29412L19800 27895L19067 27162L18335 26430L17420 27345L16505 28260L14780 28260L13054 28260L13031 28307C 12972 28428 12854 28567 12744 28646C 12659 28707 12530 28766 12424 28792C 12298 28822 12118 28822 12000 28791C 11677 28705 11442 28478 11344 28155C 11320 28075 11317 28049 11316 27915C 11316 27803 11320 27749 11333 27700C 11407 27425 11579 27213 11825 27094C 11962 27028 12049 27008 12210 27007C 12356 27006 12428 27019 12549 27066C 12689 27122 12820 27217 12916 27333L12916 27333L12964 27390L14550 27390L16135 27390L16925 26600L17715 25810L17240 25335L16765 24860L14519 24860L12273 24860L12238 24913C 12019 25242 11590 25390 11210 25268C 10693 25102 10437 24511 10670 24022C 10719 23918 10756 23865 10838 23778C 11134 23465 11623 23410 11987 23650C 12088 23716 12199 23827 12255 23918L12255 23918L12293 23980L14709 23980L17125 23980L18835 25690L20545 27400L21420 27400L22295 27400L22325 27353C 22368 27285 22494 27162 22576 27107C 22659 27052 22761 27007 22869 26978C 22978 26948 23212 26948 23321 26978C 23504 27028 23639 27106 23770 27240C 23966 27439 24063 27713 24033 27983C 23995 28315 23801 28595 23507 28739C 23087 28944 22595 28815 22320 28428L22320 28428L22287 28380L21416 28380L20545 28380L18830 30095L17115 31810L15975 31810L14835 31811L14795 31871C 14740 31955 14594 32091 14503 32145C 14401 32204 14277 32248 14160 32265C 14058 32281 14021 32282 13920 32270z" stroke="none" fill="#E8E8E8" fill-rule="nonzero"/>
      <path d="M26117 32210C 25752 32144 25473 31888 25368 31525C 25348 31456 25345 31423 25346 31285C 25346 31140 25349 31116 25374 31035C 25475 30703 25740 30456 26075 30383C 26174 30361 26365 30361 26462 30384C 26556 30405 26641 30438 26723 30484C 26946 30609 27111 30828 27171 31076C 27196 31180 27200 31356 27181 31460C 27114 31808 26861 32083 26513 32186C 26443 32206 26398 32213 26295 32215C 26224 32217 26143 32215 26117 32210z" stroke="none" fill="#E8E8E8" fill-rule="nonzero"/>
      <path d="M25230 30165C 25033 30121 24871 29962 24825 29769C 24763 29503 24907 29238 25165 29144C 25447 29041 25767 29205 25855 29497C 25875 29562 25874 29712 25854 29781C 25802 29956 25677 30089 25511 30146C 25423 30176 25313 30183 25230 30165z" stroke="none" fill="#E8E8E8" fill-rule="nonzero"/>
      <path d="M28276 30014C 27956 29945 27684 29696 27587 29385C 27422 28856 27747 28304 28289 28195C 28403 28171 28613 28179 28720 28209C 28971 28281 29190 28463 29305 28695C 29378 28844 29395 28918 29394 29100C 29394 29280 29377 29359 29310 29499C 29183 29763 28939 29956 28656 30014C 28559 30034 28370 30034 28276 30014z" stroke="none" fill="#E8E8E8" fill-rule="nonzero"/>
      <path d="M28922 26880C 28747 26848 28570 26745 28465 26612C 28403 26535 28333 26389 28314 26300C 28295 26206 28295 26050 28315 25964C 28349 25817 28446 25661 28568 25557C 28635 25500 28779 25427 28870 25403C 28955 25381 29132 25381 29222 25403C 29442 25457 29649 25627 29735 25826C 29816 26012 29820 26227 29747 26410C 29656 26633 29467 26802 29235 26864C 29161 26884 28993 26892 28922 26880z" stroke="none" fill="#E8E8E8" fill-rule="nonzero"/>
      <path d="M24865 26334C 24647 26302 24479 26223 24332 26085C 24288 26044 24230 25978 24204 25940L24204 25940L24156 25870L23015 25870L21873 25870L19837 23840L17802 21810L16193 21810L14584 21810L14550 21866C 14431 22062 14193 22224 13955 22271C 13850 22291 13662 22286 13565 22261C 13314 22196 13093 22016 12979 21785C 12904 21633 12887 21555 12887 21375C 12887 21241 12890 21215 12914 21135C 13011 20814 13257 20577 13577 20498C 13742 20457 13958 20473 14117 20536C 14295 20607 14474 20754 14552 20893L14552 20893L14574 20930L16370 20930L18167 20930L20203 22960L22238 24990L23187 24990L24135 24989L24168 24931C 24279 24738 24495 24573 24720 24510C 24828 24479 25019 24472 25129 24494C 25239 24517 25288 24533 25387 24582C 25605 24690 25776 24894 25855 25140C 25879 25213 25883 25246 25887 25375C 25891 25512 25889 25534 25866 25625C 25760 26036 25417 26316 24997 26334C 24941 26336 24882 26336 24865 26334z" stroke="none" fill="#E8E8E8" fill-rule="nonzero"/>
      <path d="M28309 24044C 27766 23946 27426 23396 27582 22865C 27673 22552 27932 22307 28260 22224C 28371 22196 28584 22198 28700 22229C 29228 22370 29524 22915 29350 23427C 29203 23858 28754 24125 28309 24044z" stroke="none" fill="#E8E8E8" fill-rule="nonzero"/>
      <path d="M25320 23603C 25065 23560 24870 23332 24870 23075C 24870 22755 25163 22501 25478 22548C 25683 22579 25867 22742 25920 22939C 25939 23010 25934 23155 25911 23231C 25835 23474 25565 23644 25320 23603z" stroke="none" fill="#E8E8E8" fill-rule="nonzero"/>
      <path d="M22220 22450C 22096 22435 21983 22376 21893 22277C 21802 22177 21760 22064 21760 21919C 21760 21637 21971 21412 22255 21393C 22413 21383 22562 21442 22674 21560C 22781 21674 22829 21806 22817 21958C 22793 22264 22524 22485 22220 22450z" stroke="none" fill="#E8E8E8" fill-rule="nonzero"/>
      <path d="M26170 21484C 26156 21482 26118 21475 26085 21469C 25802 21418 25551 21219 25424 20946C 25359 20805 25345 20734 25346 20555C 25346 20411 25349 20386 25373 20307C 25438 20096 25573 19907 25742 19791C 25814 19743 25946 19683 26035 19658C 26142 19629 26381 19626 26480 19653C 26699 19713 26867 19820 26995 19983C 27186 20224 27245 20542 27153 20834C 27054 21150 26795 21389 26470 21464C 26404 21480 26216 21492 26170 21484z" stroke="none" fill="#E8E8E8" fill-rule="nonzero"/>
      <path d="M23065 20368C 22875 20332 22701 20162 22655 19968C 22587 19678 22773 19387 23065 19325C 23153 19307 23187 19307 23275 19325C 23469 19366 23630 19512 23684 19699C 23706 19774 23705 19909 23681 19992C 23610 20250 23333 20419 23065 20368z" stroke="none" fill="#E8E8E8" fill-rule="nonzero"/>
      <path d="M19835 18806C 19541 18749 19300 18564 19170 18296C 19114 18181 19095 18114 19080 17980C 19022 17471 19417 17003 19938 16964C 20239 16941 20560 17088 20746 17333C 20802 17407 20882 17570 20905 17660C 20932 17766 20936 17957 20912 18070C 20840 18421 20579 18697 20235 18790C 20132 18818 19935 18825 19835 18806z" stroke="none" fill="#E8E8E8" fill-rule="nonzero"/>
      <path d="M25018 18494C 24749 18436 24505 18245 24385 17997C 24310 17841 24295 17772 24296 17580C 24296 17430 24299 17407 24323 17327C 24413 17034 24630 16805 24910 16708C 25098 16643 25332 16643 25520 16708C 25927 16850 26186 17255 26139 17677C 26095 18073 25822 18387 25436 18485C 25355 18506 25315 18510 25211 18509C 25142 18509 25055 18502 25018 18494z" stroke="none" fill="#E8E8E8" fill-rule="nonzero"/>
      <path d="M22702 17170C 22186 17097 21826 16622 21904 16114C 21960 15745 22225 15447 22585 15348C 22699 15317 22940 15317 23052 15348C 23377 15437 23618 15673 23717 15997C 23741 16076 23743 16101 23744 16240C 23744 16369 23740 16408 23722 16473C 23626 16822 23365 17075 23020 17154C 22936 17174 22782 17181 22702 17170z" stroke="none" fill="#E8E8E8" fill-rule="nonzero"/>
    </g>
  </g>
</svg>