<svg preserveAspectRatio="xMidYMid meet" viewBox="469 267.2 2546 2240" xmlns="http://www.w3.org/2000/svg" version="1.0" width="255" height="224">

<g stroke="none" fill="#946bae" transform="translate(0,4000) scale(0.1,-0.1)">
<path d="M22621 36865 c-266 -60 -504 -244 -625 -482 -145 -288 -135 -626 26&#10;-897 122 -204 311 -351 543 -422 83 -26 103 -28 255 -28 151 0 172 2 253 27&#10;331 102 569 349 653 677 28 110 26 335 -4 445 -27 99 -89 229 -146 309 -43 60&#10;-142 163 -200 207 -62 48 -186 111 -276 141 -87 28 -109 31 -255 34 -115 3&#10;-178 -1 -224 -11z"/>
<path d="M13030 36283 c-470 -45 -844 -150 -1237 -347 -314 -157 -574 -341&#10;-826 -586 -292 -282 -514 -588 -688 -946 l-68 -141 -47 -7 c-26 -3 -86 -6&#10;-133 -6 -164 -1 -424 -37 -644 -90 -887 -215 -1642 -781 -2109 -1580 -218&#10;-373 -355 -780 -425 -1265 -24 -169 -24 -647 0 -825 66 -475 209 -894 436&#10;-1279 34 -57 60 -105 59 -106 -2 -2 -54 -22 -115 -45 -1051 -386 -1839 -1264&#10;-2104 -2344 -70 -287 -93 -489 -93 -806 0 -392 48 -702 164 -1051 164 -493&#10;435 -933 805 -1305 364 -366 756 -618 1240 -794 50 -18 93 -36 97 -39 4 -4&#10;-15 -45 -43 -91 -229 -380 -377 -814 -446 -1300 -25 -176 -25 -653 0 -825 24&#10;-163 53 -308 87 -440 335 -1264 1366 -2213 2655 -2444 153 -28 385 -51 508&#10;-51 l104 0 86 -172 c292 -589 720 -1053 1279 -1390 411 -247 862 -399 1363&#10;-459 165 -20 576 -17 750 5 580 74 1102 276 1560 604 667 478 1140 1192 1320&#10;1990 73 326 85 537 85 1575 l0 797 -934 0 -934 0 -27 -32 c-15 -18 -57 -59&#10;-93 -92 -182 -159 -398 -265 -639 -313 -132 -25 -367 -23 -500 5 -268 58 -474&#10;170 -668 366 -192 193 -303 399 -361 668 -26 118 -26 391 0 508 61 282 188&#10;514 382 700 383 365 921 467 1417 267 164 -67 361 -203 462 -321 l47 -56 924&#10;0 924 0 0 675 0 675 -2067 0 -2068 0 -100 -98 c-56 -54 -134 -121 -175 -149&#10;-449 -302 -1019 -312 -1465 -25 -304 195 -503 491 -581 863 -25 115 -25 361&#10;-1 482 97 484 423 859 880 1012 162 54 272 69 467 62 132 -4 184 -11 263 -31&#10;248 -66 435 -170 608 -341 l76 -75 2055 0 2054 0 27 28 27 28 0 485 0 484&#10;-343 343 -342 342 -1405 0 -1405 0 -70 -61 c-175 -152 -373 -250 -608 -301&#10;-133 -28 -389 -30 -512 -4 -280 61 -506 186 -700 387 -175 181 -285 391 -341&#10;649 -26 119 -26 391 0 510 118 547 515 940 1056 1047 127 25 365 23 497 -6&#10;260 -55 498 -183 679 -367 39 -39 86 -93 104 -118 l33 -46 1679 0 1678 0 0&#10;893 0 893 -33 32 -33 32 -748 0 -748 0 -85 -90 c-196 -208 -445 -345 -728&#10;-400 -131 -25 -341 -27 -471 -5 -549 95 -973 505 -1091 1055 -22 105 -25 411&#10;-5 505 63 292 183 517 377 710 55 55 134 123 175 152 415 284 933 318 1385 91&#10;100 -51 233 -147 322 -235 l85 -83 800 0 801 0 -6 473 c-7 567 -21 720 -97&#10;1034 -311 1289 -1364 2280 -2670 2512 -207 37 -374 51 -600 49 -118 -1 -231&#10;-3 -250 -5z"/>
<path d="M19885 35060 c-341 -48 -617 -263 -746 -580 -68 -169 -83 -394 -36&#10;-572 75 -284 276 -517 544 -628 241 -101 529 -91 765 25 188 93 354 264 439&#10;450 69 153 96 356 69 522 -71 441 -435 767 -880 787 -52 3 -122 1 -155 -4z"/>
<path d="M25094 35059 c-356 -42 -663 -307 -770 -666 -36 -119 -44 -311 -19&#10;-434 72 -357 331 -628 692 -725 105 -29 340 -27 453 4 325 87 582 347 667 671&#10;31 121 35 304 8 421 -41 181 -123 327 -255 460 -152 151 -317 235 -525 266&#10;-98 15 -144 16 -251 3z"/>
<path d="M22051 32389 c-250 -44 -476 -191 -618 -399 -106 -157 -156 -327&#10;-156 -530 1 -419 284 -779 698 -891 119 -32 326 -32 450 0 336 87 587 336 682&#10;675 13 47 17 100 17 226 0 150 -3 173 -27 253 -101 330 -357 573 -687 652 -79&#10;19 -286 27 -359 14z"/>
<path d="M13920 32270 c-106 -13 -189 -38 -297 -90 -373 -181 -579 -585 -508&#10;-995 33 -190 120 -352 264 -495 101 -100 185 -157 303 -203 134 -54 181 -62&#10;353 -61 144 0 169 3 248 27 104 32 209 83 293 143 81 57 200 186 248 269 l39&#10;65 951 0 951 0 1518 -1518 1517 -1517 -733 -733 -732 -732 -915 915 -915 915&#10;-1725 0 -1726 0 -23 47 c-59 121 -177 260 -287 339 -85 61 -214 120 -320 146&#10;-126 30 -306 30 -424 -1 -323 -86 -558 -313 -656 -636 -24 -80 -27 -106 -28&#10;-240 0 -112 4 -166 17 -215 74 -275 246 -487 492 -606 137 -66 224 -86 385&#10;-87 146 -1 218 12 339 59 140 56 271 151 367 267 l48 57 1586 0 1585 0 790&#10;-790 790 -790 -475 -475 -475 -475 -2246 0 -2246 0 -35 53 c-219 329 -648 477&#10;-1028 355 -517 -166 -773 -757 -540 -1246 49 -104 86 -157 168 -244 296 -313&#10;785 -368 1149 -128 101 66 212 177 268 268 l38 62 2416 0 2416 0 1710 1710&#10;1710 1710 875 0 875 0 30 -47 c43 -68 169 -191 251 -246 83 -55 185 -100 293&#10;-129 109 -30 343 -30 452 0 183 50 318 128 449 262 196 199 293 473 263 743&#10;-38 332 -232 612 -526 756 -420 205 -912 76 -1187 -311 l-33 -48 -871 0 -871&#10;0 -1715 1715 -1715 1715 -1140 0 -1140 1 -40 60 c-55 84 -201 220 -292 274&#10;-102 59 -226 103 -343 120 -102 16 -139 17 -240 5z"/>
<path d="M26117 32210 c-365 -66 -644 -322 -749 -685 -20 -69 -23 -102 -22&#10;-240 0 -145 3 -169 28 -250 101 -332 366 -579 701 -652 99 -22 290 -22 387 1&#10;94 21 179 54 261 100 223 125 388 344 448 592 25 104 29 280 10 384 -67 348&#10;-320 623 -668 726 -70 20 -115 27 -218 29 -71 2 -152 0 -178 -5z"/>
<path d="M25230 30165 c-197 -44 -359 -203 -405 -396 -62 -266 82 -531 340&#10;-625 282 -103 602 61 690 353 20 65 19 215 -1 284 -52 175 -177 308 -343 365&#10;-88 30 -198 37 -281 19z"/>
<path d="M28276 30014 c-320 -69 -592 -318 -689 -629 -165 -529 160 -1081 702&#10;-1190 114 -24 324 -16 431 14 251 72 470 254 585 486 73 149 90 223 89 405 0&#10;180 -17 259 -84 399 -127 264 -371 457 -654 515 -97 20 -286 20 -380 0z"/>
<path d="M28922 26880 c-175 -32 -352 -135 -457 -268 -62 -77 -132 -223 -151&#10;-312 -19 -94 -19 -250 1 -336 34 -147 131 -303 253 -407 67 -57 211 -130 302&#10;-154 85 -22 262 -22 352 0 220 54 427 224 513 423 81 186 85 401 12 584 -91&#10;223 -280 392 -512 454 -74 20 -242 28 -313 16z"/>
<path d="M24865 26334 c-218 -32 -386 -111 -533 -249 -44 -41 -102 -107 -128&#10;-145 l-48 -70 -1141 0 -1142 0 -2036 -2030 -2035 -2030 -1609 0 -1609 0 -34&#10;56 c-119 196 -357 358 -595 405 -105 20 -293 15 -390 -10 -251 -65 -472 -245&#10;-586 -476 -75 -152 -92 -230 -92 -410 0 -134 3 -160 27 -240 97 -321 343 -558&#10;663 -637 165 -41 381 -25 540 38 178 71 357 218 435 357 l22 37 1796 0 1797 0&#10;2036 2030 2035 2030 949 0 948 -1 33 -58 c111 -193 327 -358 552 -421 108 -31&#10;299 -38 409 -16 110 23 159 39 258 88 218 108 389 312 468 558 24 73 28 106&#10;32 235 4 137 2 159 -21 250 -106 411 -449 691 -869 709 -56 2 -115 2 -132 0z"/>
<path d="M28309 24044 c-543 -98 -883 -648 -727 -1179 91 -313 350 -558 678&#10;-641 111 -28 324 -26 440 5 528 141 824 686 650 1198 -147 431 -596 698 -1041&#10;617z"/>
<path d="M25320 23603 c-255 -43 -450 -271 -450 -528 0 -320 293 -574 608&#10;-527 205 31 389 194 442 391 19 71 14 216 -9 292 -76 243 -346 413 -591 372z"/>
<path d="M22220 22450 c-124 -15 -237 -74 -327 -173 -91 -100 -133 -213 -133&#10;-358 0 -282 211 -507 495 -526 158 -10 307 49 419 167 107 114 155 246 143&#10;398 -24 306 -293 527 -597 492z"/>
<path d="M26170 21484 c-14 -2 -52 -9 -85 -15 -283 -51 -534 -250 -661 -523&#10;-65 -141 -79 -212 -78 -391 0 -144 3 -169 27 -248 65 -211 200 -400 369 -516&#10;72 -48 204 -108 293 -133 107 -29 346 -32 445 -5 219 60 387 167 515 330 191&#10;241 250 559 158 851 -99 316 -358 555 -683 630 -66 16 -254 28 -300 20z"/>
<path d="M23065 20368 c-190 -36 -364 -206 -410 -400 -68 -290 118 -581 410&#10;-643 88 -18 122 -18 210 0 194 41 355 187 409 374 22 75 21 210 -3 293 -71&#10;258 -348 427 -616 376z"/>
<path d="M19835 18806 c-294 -57 -535 -242 -665 -510 -56 -115 -75 -182 -90&#10;-316 -58 -509 337 -977 858 -1016 301 -23 622 124 808 369 56 74 136 237 159&#10;327 27 106 31 297 7 410 -72 351 -333 627 -677 720 -103 28 -300 35 -400 16z"/>
<path d="M25018 18494 c-269 -58 -513 -249 -633 -497 -75 -156 -90 -225 -89&#10;-417 0 -150 3 -173 27 -253 90 -293 307 -522 587 -619 188 -65 422 -65 610 0&#10;407 142 666 547 619 969 -44 396 -317 710 -703 808 -81 21 -121 25 -225 24&#10;-69 0 -156 -7 -193 -15z"/>
<path d="M22702 17170 c-516 -73 -876 -548 -798 -1056 56 -369 321 -667 681&#10;-766 114 -31 355 -31 467 0 325 89 566 325 665 649 24 79 26 104 27 243 0 129&#10;-4 168 -22 233 -96 349 -357 602 -702 681 -84 20 -238 27 -318 16z"/>
<path d="M11823 13399 c-88 -10 -209 -50 -282 -91 -114 -65 -235 -203 -282&#10;-319 -57 -142 -53 14 -56 -2224 -5 -2455 -3 -2548 73 -2945 204 -1076 913&#10;-1917 1926 -2284 647 -234 1462 -259 2148 -66 492 139 939 400 1296 756 462&#10;461 756 1070 858 1779 41 280 41 298 41 2595 0 2112 -1 2219 -18 2295 -57 249&#10;-229 430 -467 492 -97 25 -284 22 -375 -7 -204 -64 -345 -213 -411 -435 -17&#10;-57 -19 -189 -24 -2310 -7 -2354 -6 -2292 -51 -2500 -104 -482 -414 -913 -836&#10;-1161 -319 -188 -668 -275 -1053 -261 -760 28 -1381 511 -1603 1247 -19 63&#10;-46 171 -58 240 l-24 125 -5 2260 -5 2260 -27 80 c-77 226 -264 403 -486 459&#10;-78 20 -193 26 -279 15z" fill="#574848"/>
<path d="M19940 13392 c-203 -11 -366 -86 -498 -227 -104 -111 -155 -227 -173&#10;-393 -6 -65 -9 -1201 -7 -3447 3 -3167 4 -3354 21 -3415 34 -124 83 -207 182&#10;-306 73 -74 106 -99 175 -133 155 -76 1 -71 2177 -71 1697 0 1961 2 2023 15&#10;262 55 464 254 515 507 69 349 -112 661 -450 776 l-80 27 -1567 3 -1568 2 -2&#10;3053 -3 3052 -23 70 c-41 121 -81 184 -177 281 -64 65 -110 101 -160 127 -116&#10;59 -250 87 -385 79z" fill="#574848"/>
<path d="M26304 13390 c-159 -17 -289 -77 -404 -186 -86 -83 -139 -165 -178&#10;-279 l-27 -80 0 -3455 0 -3455 27 -80 c69 -204 226 -369 406 -426 95 -30 262&#10;-37 367 -15 232 48 409 219 478 463 l22 78 3 1152 3 1152 1122 4 1122 3 122&#10;27 c368 81 684 244 994 513 400 347 699 852 829 1399 55 231 65 325 65 625 0&#10;292 -9 385 -60 610 -120 536 -429 1054 -840 1409 -390 336 -798 511 -1262 541&#10;-182 11 -2679 11 -2789 0z m2823 -1324 c233 -62 456 -273 607 -574 109 -217&#10;156 -419 156 -672 0 -247 -45 -438 -156 -662 -113 -226 -269 -406 -443 -512&#10;-78 -48 -154 -74 -244 -86 -40 -5 -510 -10 -1059 -10 l-988 0 0 1265 0 1265&#10;1038 0 c848 0 1046 -3 1089 -14z" fill="#574848"/>
<path d="M6040 11610 c-522 -64 -942 -231 -1343 -534 -565 -427 -976 -1120&#10;-1116 -1881 -91 -499 -91 -1023 0 -1495 106 -549 349 -1057 700 -1464 376&#10;-436 904 -756 1454 -880 397 -89 791 -95 1147 -15 469 104 1034 455 1302 808&#10;l41 54 3 -324 c4 -438 -16 -583 -113 -786 -216 -456 -677 -694 -1394 -721&#10;-277 -11 -432 2 -661 53 -162 37 -297 82 -647 213 -177 67 -354 130 -393 141&#10;-237 66 -435 17 -601 -148 -56 -56 -87 -97 -116 -156 -219 -436 -84 -767 409&#10;-999 193 -91 411 -153 823 -235 498 -99 848 -138 1158 -127 396 14 706 60&#10;1021 152 525 154 1019 449 1309 782 299 343 466 744 549 1317 l22 150 4 2735&#10;c2 2052 0 2754 -8 2810 -34 216 -165 397 -354 491 -193 95 -442 94 -642 -3&#10;-81 -39 -225 -174 -267 -252 -64 -116 -97 -257 -97 -413 l0 -75 -88 83 c-320&#10;305 -757 549 -1171 654 -209 53 -329 67 -601 70 -140 2 -289 0 -330 -5z m805&#10;-1264 c356 -56 658 -214 910 -477 288 -301 460 -675 516 -1124 18 -145 16&#10;-483 -4 -632 -76 -553 -358 -1023 -787 -1310 -263 -176 -569 -262 -933 -263&#10;-363 0 -672 89 -941 273 -100 69 -271 227 -356 332 -217 265 -354 597 -407&#10;985 -19 138 -21 483 -4 615 59 458 220 812 511 1120 185 196 365 317 597 401&#10;152 55 229 71 463 98 66 8 345 -4 435 -18z" fill="#574848"/>
</g>
</svg>